<svg width="64" height="64" viewBox="0 -18 146 146" fill="none" xmlns="http://www.w3.org/2000/svg">
<path d="M126.215 31.1044C135.914 20.3256 142.53 9.3061 144.66 5.57184C145.814 3.54959 143.946 1.44461 141.618 1.43632L110.204 1.32449C108.004 1.31665 106.213 3.09438 106.205 5.29515L106.067 44.1179C106.059 46.3324 108.015 48.2172 109.825 46.9416C109.987 46.8275 110.146 46.7047 110.302 46.5732C114.402 43.1092 120.1 37.8989 126.215 31.1044Z" fill="#9378FF"/>
<path d="M47.1949 1.02349C49.1877 0.0830701 51.0625 1.96222 51.0625 4.1658V40.4365C51.0626 46.3051 55.8199 51.0623 61.6885 51.0625H101.449C102.801 51.0625 104.066 51.7462 104.781 52.8939C105.072 53.3595 105.315 53.7559 105.508 54.0746C105.87 54.6726 106.054 55.3592 106.054 56.0583V70.0488C106.054 81.6052 104.753 93.5293 103.791 100.765C103.248 104.85 99.9766 107.956 95.8691 108.297C87.4957 108.991 71.8786 109.982 51.0312 109.982C50.3254 109.982 49.7539 109.407 49.7539 108.701V81.2338C49.7539 79.0331 47.9698 77.249 45.769 77.249H30.1714C27.9706 77.249 26.1865 79.0331 26.1865 81.2338V105.278C26.1865 107.551 24.288 109.365 22.019 109.238C17.1533 108.965 13.2941 108.656 10.4111 108.382C6.50998 108.011 3.43242 105.076 2.82227 101.205C1.66113 93.8386 0 81.329 0 70.0488C2.08576e-06 60.1475 0.417269 55.5769 0.775391 53.4775C0.980421 52.2757 1.59128 51.1731 2.22852 50.1337C4.9309 45.726 13.2718 32.8076 25.5137 20.1582C33.1874 12.2289 40.3483 6.13122 45.5293 2.05464C46.0569 1.63949 46.6151 1.29708 47.1949 1.02349Z" fill="#9378FF"/>
<path d="M74.0172 11.1604L75.8682 1.68675C76.3077 -0.562251 79.4955 -0.562251 79.935 1.68675L81.786 11.1604C82.4253 14.4321 84.9293 17.0082 88.1586 17.7165L96.5637 19.5601C98.7401 20.0375 98.7401 23.1699 96.5637 23.6472L88.1586 25.4908C84.9293 26.1992 82.4253 28.7752 81.786 32.0469L79.935 41.5206C79.4955 43.7696 76.3077 43.7696 75.8682 41.5206L74.0172 32.0469C73.3779 28.7752 70.874 26.1992 67.6446 25.4908L59.2395 23.6472C57.0631 23.1699 57.0632 20.0375 59.2395 19.5601L67.6446 17.7165C70.874 17.0082 73.3779 14.4321 74.0172 11.1604Z" fill="#9378FF"/>
</svg>
